<svg id="SvgjsSvg1001" width="288" height="288" xmlns="http://www.w3.org/2000/svg" version="1.1" xmlns:xlink="http://www.w3.org/1999/xlink" xmlns:svgjs="http://svgjs.com/svgjs"><defs id="SvgjsDefs1002"></defs><g id="SvgjsG1008"><svg xmlns="http://www.w3.org/2000/svg" enable-background="new 0 0 36 36" viewBox="0 0 36 36" width="288" height="288"><path fill="#efefef" d="M8.114,5.564C6.309,12.241,1.61,15.891,0.74,19.109s-0.847,10.475,13.955,14.477s19.432-4.501,20.388-8.041C39.564,8.973,11.311-6.262,8.114,5.564z" class="colorEFEFEF svgShape"></path><rect width="2" height="1" x="21.75" y="4.083" fill="#a4afc1" class="colorA4AFC1 svgShape"></rect><rect width="2" height="1" x="16" y="4.083" fill="#a4afc1" class="colorA4AFC1 svgShape"></rect><rect width="1" height="2" x="19.5" y=".583" fill="#a4afc1" class="colorA4AFC1 svgShape"></rect><path fill="#a4afc1" d="M7.215,31.5c-0.827,0-1.5-0.673-1.5-1.5s0.673-1.5,1.5-1.5s1.5,0.673,1.5,1.5S8.042,31.5,7.215,31.5z M7.215,29.5c-0.276,0-0.5,0.224-0.5,0.5s0.224,0.5,0.5,0.5s0.5-0.224,0.5-0.5S7.491,29.5,7.215,29.5z" class="colorA4AFC1 svgShape"></path><path d="M17.017,19.763c-0.112-0.076-2.756-1.88-2.756-4.209c0-2.457,1.764-3.776,3.182-4.836c1.116-0.834,2.08-1.555,2.08-2.6c0-0.51-0.299-0.768-0.302-0.771l0.906-1.195c0.092,0.069,0.896,0.715,0.896,1.966c0,1.796-1.363,2.815-2.681,3.801c-1.327,0.992-2.58,1.93-2.58,3.635c0,1.269,1.512,2.57,2.094,2.965L17.017,19.763z" fill="#209c68" class="color000 svgShape"></path><path d="M20.065,18.978h-1.5c0-0.695-0.2-0.915-0.53-1.279c-0.382-0.421-0.905-0.997-0.905-2.233c0-2.285,3.912-4.542,4.696-4.971l0.72,1.315c-1.58,0.866-3.917,2.627-3.917,3.656c0,0.657,0.194,0.871,0.516,1.226C19.534,17.118,20.065,17.704,20.065,18.978z" fill="#209c68" class="color000 svgShape"></path><path d="M14.518 22.203c-1.703 0-3.167-.205-3.892-.651-.583-.358-.669-.827-.669-1.075 0-1.286 2.092-1.926 3.848-2.237l.261 1.477c-.909.162-1.863.456-2.35.706 1.606.533 7.432.351 10.206-1.054l.678 1.339C20.73 21.652 17.305 22.203 14.518 22.203zM15.489 24.987c-2.631 0-3.092-1.199-3.164-1.478l1.453-.372c-.015-.059-.028-.082-.029-.083.004.007.497.709 3.194.315 2.829-.414 3.369-.912 3.391-.933 0 0-.051.05-.095.16l1.392.561c-.296.736-1.8 1.307-4.471 1.697C16.524 24.947 15.97 24.987 15.489 24.987z" fill="#209c68" class="color000 svgShape"></path><path d="M13.478,27.808c-1.762,0-3.179-0.114-3.732-0.334C9.097,27.214,9,26.769,9,26.526c0-1.104,1.534-1.728,2.448-2.001l0.431,1.437c-0.26,0.079-0.535,0.186-0.773,0.298c2.934,0.331,11.681-0.388,12.685-1.445l1.088,1.033C23.607,27.185,17.598,27.808,13.478,27.808z" fill="#209c68" class="color000 svgShape"></path><path d="M14.741 29.983c-1.837 0-3.301-.144-3.922-.367l.507-1.412c1.627.585 10.786.452 14.533-1.846l.784 1.279C23.792 29.384 18.49 29.983 14.741 29.983zM22.453 24.267l-.595-1.377c1.413-.612 3.403-1.925 3.403-2.925 0-.241-.068-.289-.094-.307-.321-.225-1.311-.046-1.874.161l-.52-1.407c.353-.129 2.166-.74 3.25.015.336.234.737.691.737 1.538C26.761 22.337 22.894 24.076 22.453 24.267z" fill="#209c68" class="color000 svgShape"></path></svg></g></svg>