<svg xmlns="http://www.w3.org/2000/svg" enable-background="new 0 0 36 36" viewBox="0 0 36 36"><path fill="#EFEFEF" d="M8.377,4.167c6.917,0,11.667-3.583,15-3.583S33.71,2.5,33.71,17.833s-9.417,17.583-13.083,17.583C3.46,35.417-3.873,4.167,8.377,4.167z"/><rect width="2" height="1" x="19.875" y="3.5" fill="#A4AFC1"/><rect width="2" height="1" x="14.125" y="3.5" fill="#A4AFC1"/><rect width="1" height="2" x="17.625" fill="#A4AFC1"/><path fill="#A4AFC1" d="M26.049,30.75c-0.827,0-1.5-0.673-1.5-1.5s0.673-1.5,1.5-1.5s1.5,0.673,1.5,1.5S26.876,30.75,26.049,30.75z M26.049,28.75c-0.275,0-0.5,0.225-0.5,0.5s0.225,0.5,0.5,0.5s0.5-0.225,0.5-0.5S26.324,28.75,26.049,28.75z"/><path fill="#2FDF84" d="M27.224,11.984l-8.697-5.091c-0.325-0.19-0.726-0.19-1.05,0l-0.002,0.001l-8.703,5.091c-0.325,0.19-0.524,0.542-0.523,0.922v10.185c0,0.379,0.2,0.731,0.524,0.921l2.688,1.574l3.612,2.115l2.403,1.407c0.325,0.19,0.724,0.19,1.049,0l8.699-5.094c0.325-0.192,0.524-0.542,0.525-0.921V12.906C27.75,12.527,27.549,12.175,27.224,11.984z"/><path fill="#00B871" d="M17.323,27.7l-3.612-2.115l-2.688-1.574C10.7,23.822,10.5,23.47,10.5,23.091V12.906c-0.001-0.38,0.198-0.731,0.523-0.922l8.104-4.74l-0.6-0.351c-0.325-0.19-0.726-0.19-1.05,0l-0.002,0.001l-8.703,5.091c-0.325,0.19-0.524,0.542-0.523,0.922v10.185c0,0.379,0.2,0.731,0.524,0.921l2.688,1.574l3.612,2.115l2.403,1.407c0.325,0.19,0.724,0.19,1.049,0l0.6-0.351L17.323,27.7z"/><path d="M12.836,26.853c-0.418,0-0.836-0.106-1.219-0.32l-0.523-0.293l0.732-1.309l0.522,0.292c0.316,0.175,0.678,0.173,0.992-0.011c0.315-0.186,0.497-0.503,0.497-0.871V13.598h1.5v10.743c0,0.9-0.463,1.709-1.238,2.164C13.706,26.736,13.271,26.853,12.836,26.853z"/><path d="M18.002,29.999c-0.313,0-0.626-0.081-0.904-0.244l-2.403-1.407l0.758-1.295l2.403,1.407c0.09,0.054,0.198,0.055,0.292,0l8.699-5.094C26.941,23.311,27,23.207,27,23.091V12.906c0-0.114-0.06-0.22-0.156-0.276l-8.695-5.09c-0.092-0.053-0.202-0.054-0.29-0.001l-8.707,5.093C9.058,12.687,9,12.791,9,12.904v10.187c0,0.112,0.06,0.22,0.152,0.273l2.688,1.574l-0.758,1.295l-2.688-1.574C7.843,24.336,7.5,23.734,7.5,23.091V12.906c-0.002-0.643,0.341-1.244,0.893-1.568l8.704-5.092c0.558-0.328,1.25-0.327,1.81-0.001l8.697,5.091c0.554,0.326,0.896,0.928,0.896,1.57v10.187c-0.002,0.643-0.344,1.241-0.893,1.566l-8.702,5.096C18.627,29.918,18.314,29.999,18.002,29.999z"/><path d="M20.438,23.152c-2.248,0-4.65-0.775-4.65-2.951h1.5c0,1.146,1.98,1.451,3.15,1.451c2.09,0,3.15-0.225,3.15-1.451c0-0.616-0.752-0.857-2.599-1.297l-0.732-0.177c-0.224-0.055-0.461-0.107-0.704-0.161c-1.589-0.351-3.766-0.83-3.766-2.768c0-2.176,2.402-2.951,4.65-2.951s4.65,0.775,4.65,2.951h-1.5c0-1.146-1.98-1.451-3.15-1.451s-3.15,0.306-3.15,1.451c0,0.678,1.122,0.979,2.589,1.303c0.257,0.057,0.507,0.112,0.742,0.171l0.718,0.173c1.93,0.459,3.752,0.893,3.752,2.756C25.088,23.152,21.947,23.152,20.438,23.152z"/></svg>