<svg xmlns="http://www.w3.org/2000/svg" enable-background="new 0 0 36 36" viewBox="0 0 36 36"><path fill="#EFEFEF" d="M34.928,20.591c-3.693-5.848-3.199-11.778-4.979-14.596S22.811-1.719,9.846,6.468s-9.84,17.35-7.882,20.45C11.13,41.433,41.468,30.949,34.928,20.591z"/><rect width="2" height="1" x="19.933" y="3.812" fill="#A4AFC1"/><rect width="2" height="1" x="14.183" y="3.812" fill="#A4AFC1"/><rect width="1" height="2" x="17.683" y=".312" fill="#A4AFC1"/><path fill="#A4AFC1" d="M27.261,28.047c-0.827,0-1.5-0.673-1.5-1.5s0.673-1.5,1.5-1.5s1.5,0.673,1.5,1.5S28.088,28.047,27.261,28.047z M27.261,26.047c-0.276,0-0.5,0.225-0.5,0.5s0.224,0.5,0.5,0.5s0.5-0.225,0.5-0.5S27.537,26.047,27.261,26.047z"/><polygon fill="#F3F3F1" points="28.049 20.917 28.053 20.913 28.047 20.917 28.048 20.917"/><polygon fill="#F3F3F1" points="28.049 20.917 28.053 20.913 28.047 20.917 28.048 20.917"/><path fill="#2FDF84" d="M13.494,16.345c0.135-0.946,0.156-1.818,0.135-2.501c-0.01-0.628-0.031-1.161-0.031-1.165c0,0-0.001,0-0.001,0s0.157-1.561,0.514-2.528c0.3-0.814,0.758-1.61,1.44-2.191c0.103-0.087,0.22-0.161,0.334-0.238l0.001-0.017c-0.677-0.21-1.892-0.566-3.173-0.618c-0.125-0.011-0.271-0.011-0.417-0.011c-0.135,0-0.281,0-0.417,0.011C10.776,7.149,9.734,7.444,8.995,8.19c-0.75,0.746-1.24,1.965-1.135,3.983c0.021,0.378,0.198,1.45,0.51,2.722c0.302,1.272,0.729,2.764,1.239,4.088c0.521,1.314,1.146,2.47,1.739,3.016c0.292,0.273,0.552,0.378,0.792,0.368c0.229-0.01,0.521-0.136,0.864-0.525c0.51-0.568,1.504-1.628,1.994-2.164L15,19.659C13.97,18.973,13.285,17.723,13.494,16.345z"/><path fill="#F3F3F1" d="M17.852 15.373c-2.988-1.162-3.207-2.983-3.22-3.129-.045.014-.089.028-.133.043l-.875.379c-.008.004-.018.008-.026.013 0 .004.021.537.031 1.165.021.683 0 1.555-.135 2.501-.312 2.06 1.354 3.865 3.219 3.865.097-.363.213-.718.324-.994C17.316 18.451 17.962 17.467 17.852 15.373zM25.158 17.228c.021-1.114-.208-2.123-.187-2.753.026-.725.039-1.278-.024-2.019-.51 1.055-1.448 2.027-2.791 2.584.212.796.579 1.604.923 2.277.181.354.354.669.491.922l-.022-.041c.093.163.181.329.286.548l.011.031c.174.411.404.792.674 1.125L24.51 19.89c.085.108.168.22.259.353l.004.001C24.721 20.191 25.117 18.636 25.158 17.228z"/><path fill="#2FDF84" d="M27.991 9.02c-1.625-1.797-3.833-2.26-5.676-2.27h-.177c-.708.01-1.396.368-2.062.494l.01.01c1.66.443 2.829 1.46 3.62 2.491.424.551.781 1.159 1.078 1.863.061.147.082.239.118.349-.001 0-.003 0-.004 0 .124 1.027.104 1.637.073 2.518-.021.63.208 1.639.187 2.753-.042 1.408-.437 2.964-.385 3.016 1.521-2.081 2.5-4.96 3.083-6.915.312-1.062.479-2.018.49-2.775C28.356 9.798 28.2 9.251 27.991 9.02zM28.194 20.777c-.279-.31-1.087.296-2.392.234-.719-.034-1.135-.261-1.213-.331H24.09c-.053.062-.111.114-.153.192-.142.266-.208.615-.187 1.069-.011.144-.041.438-.082.814l.003.003c.546.334 2.49.008 2.846-.167C28.133 22.124 28.54 21.161 28.194 20.777zM18.194 22.007c.003-.129.005-.268.009-.389 0-.004 0-.009 0-.013 0-.043-.007-.085-.021-.121-.014-.104-.039-.205-.073-.298-.131-.357-.373-.671-.724-.82 0 0-1.131 1.264-1.913 1.643s-1.442.344-1.569.666c-.127.321.198.889 2.223.674 1.621-.172 2.066-1.34 2.066-1.34L18.194 22.007z"/><path fill="#F3F3F1" d="M18.301,7.021V7.019c-1.216,0.003-2.088,0.378-2.75,0.941c-0.682,0.581-1.14,1.377-1.44,2.191c-0.357,0.967-0.514,2.529-0.514,2.529c0.367-0.21,0.85-0.42,1.366-0.542c0.517-0.122,1.073-0.159,1.577,0.041c0.504,0.2,0.921,0.67,1.072,1.382c0.724,3.423-0.225,4.696-0.575,5.656c-0.111,0.276-0.227,0.632-0.324,0.994c0,0,0.111-0.027,0.156-0.027c0.267,0.002,0.401,0.133,0.516,0.183c0.352,0.149,0.594,0.462,0.724,0.82c0.034,0.094,0.059,0.194,0.073,0.299c0.013,0.036,0.021,0.078,0.021,0.121c0,0.004,0,0.008,0,0.013c-0.017,0.525-0.027,1.142-0.027,1.762c0,0.735,0.015,1.466,0.042,2.194c0.024,0.553,0.058,1.042,0.101,1.428c0.044,0.393,0.107,0.69,0.147,0.791c0.132,0.336,0.324,0.777,0.672,1.076c0.348,0.299,0.847,0.498,1.758,0.299c0.79-0.173,1.278-0.414,1.604-0.76c0.326-0.346,0.519-0.827,0.644-1.564c0.186-1.104,0.561-4.304,0.606-4.906c-0.021-0.454,0.045-0.803,0.187-1.069c0.146-0.273,0.372-0.44,0.568-0.531c0.098-0.045,0.189-0.076,0.264-0.098c-0.092-0.133-0.174-0.245-0.259-0.353l0.009,0.012c-0.269-0.332-0.5-0.714-0.674-1.125l-0.011-0.03c-0.105-0.22-0.193-0.386-0.286-0.549l0.022,0.041c-0.137-0.252-0.31-0.568-0.491-0.922c-0.362-0.709-0.756-1.569-0.961-2.407c-0.204-0.836-0.234-1.702,0.289-2.313c0.463-0.542,1.276-0.767,2.496-0.641c-0.036-0.11-0.058-0.202-0.118-0.349c-0.297-0.704-0.654-1.311-1.078-1.863C22.672,8.398,21,7.064,18.42,7.021H18.301z"/><polygon fill="#D5DBE1" points="28.049 20.917 28.053 20.913 28.047 20.917 28.048 20.917"/><polygon fill="#D5DBE1" points="28.049 20.917 28.053 20.913 28.047 20.917 28.048 20.917"/><path fill="#00B871" d="M11.859,18.983c-0.51-1.324-0.937-2.817-1.239-4.088c-0.312-1.272-0.49-2.344-0.51-2.722c-0.104-2.018,0.385-3.237,1.135-3.983c0.594-0.6,1.387-0.899,2.247-1.03c-0.255-0.033-0.514-0.063-0.779-0.074c-0.125-0.011-0.271-0.011-0.417-0.011c-0.135,0-0.281,0-0.417,0.011C10.776,7.149,9.734,7.444,8.995,8.19c-0.75,0.746-1.24,1.965-1.135,3.983c0.021,0.378,0.198,1.45,0.51,2.722c0.302,1.272,0.729,2.764,1.239,4.088c0.521,1.314,1.146,2.47,1.739,3.016c0.292,0.273,0.552,0.378,0.792,0.368c0.229-0.01,0.521-0.136,0.864-0.525c0.064-0.071,0.153-0.167,0.23-0.252C12.756,20.971,12.275,20.03,11.859,18.983z"/><path fill="#D5DBE1" d="M15.744,16.345c0.11-0.772,0.143-1.489,0.14-2.1c-1.126-0.955-1.244-1.898-1.253-2.001c-0.045,0.014-0.089,0.028-0.133,0.043l-0.875,0.379c-0.008,0.004-0.018,0.008-0.026,0.013c0,0.004,0.021,0.537,0.031,1.165c0.021,0.683,0,1.555-0.135,2.501c-0.312,2.06,1.354,3.865,3.219,3.865c0.073-0.273,0.157-0.53,0.241-0.764C16.094,18.729,15.556,17.587,15.744,16.345z"/><path fill="#00B871" d="M27.221 14.474c.031-.882.052-1.491-.073-2.518.002 0 .003 0 .004 0-.036-.11-.058-.202-.118-.349-.297-.704-.654-1.311-1.078-1.863-.792-1.031-1.961-2.049-3.62-2.491l-.01-.01c.454-.086.918-.273 1.391-.391-.48-.069-.952-.1-1.402-.103h-.177c-.708.01-1.396.368-2.062.494l.01.01c1.66.443 2.829 1.46 3.62 2.491.424.551.781 1.159 1.078 1.863.061.147.082.239.118.349-.001 0-.003 0-.004 0 .124 1.027.104 1.637.073 2.518-.021.63.208 1.639.187 2.753-.042 1.408-.437 2.964-.385 3.016 1.092-1.494 1.9-3.396 2.488-5.076C27.234 14.909 27.215 14.669 27.221 14.474zM26 21.94c-.018-.388.04-.685.142-.933-.111.004-.221.009-.34.004-.719-.034-1.135-.261-1.213-.331H24.09c-.053.062-.111.114-.153.192-.142.266-.208.615-.187 1.069-.011.144-.041.438-.082.814l.003.003c.396.242 1.52.137 2.247-.006C25.959 22.377 25.989 22.083 26 21.94z"/><path fill="#D5DBE1" d="M21.388 28.871c-.348-.3-.54-.74-.672-1.076-.04-.101-.103-.398-.147-.791-.043-.386-.078-.875-.101-1.428-.027-.728-.042-1.459-.042-2.194 0-.62.01-1.237.027-1.762 0-.004 0-.009 0-.013 0-.043-.007-.085-.021-.121-.014-.104-.039-.205-.073-.298-.131-.357-.373-.671-.724-.82-.115-.05-.249-.181-.516-.183-.044 0-.156.026-.156.026.097-.363.213-.718.324-.994.35-.96 1.299-2.233.575-5.656-.151-.713-.568-1.182-1.072-1.382-.504-.2-1.061-.163-1.577-.041-.165.039-.317.098-.473.152.41.236.742.657.872 1.271.724 3.423-.225 4.696-.575 5.656-.111.276-.227.632-.324.994 0 0 .111-.027.156-.026.267.002.401.133.516.183.352.149.594.462.724.82.034.094.059.194.073.298.013.036.021.078.021.121 0 .004 0 .008 0 .013-.017.525-.027 1.142-.027 1.762 0 .735.015 1.466.042 2.194.024.553.058 1.042.101 1.428.044.393.107.69.147.791.132.336.324.777.672 1.076.348.299.847.498 1.758.299.249-.055.459-.119.653-.188C21.495 28.945 21.435 28.912 21.388 28.871zM16.361 10.151c.3-.814.758-1.61 1.44-2.191.457-.388 1.024-.677 1.725-.826-.351-.062-.715-.106-1.107-.113h-.118V7.019c-1.216.003-2.088.378-2.75.941-.682.581-1.14 1.377-1.44 2.191-.357.967-.514 2.528-.514 2.528.367-.21.85-.42 1.366-.542.314-.074.642-.109.965-.086C16.008 11.509 16.148 10.727 16.361 10.151z"/><path d="M24.45 23.653c-.495 0-.959-.068-1.267-.257l.783-1.279c.327.132 1.803-.068 2.134-.205.026-.011.085-.035.113-.043.179-.052.335-.108.469-.168-.298.048-.637.079-1.012.059-.799-.038-1.418-.289-1.678-.521l.5-.559.449-.599c.002.001.265.155.8.181.547.023 1.003-.094 1.371-.19.49-.128 1.1-.288 1.543.204.288.32.379.766.249 1.221-.227.795-1.043 1.451-2.241 1.805C26.292 23.44 25.323 23.653 24.45 23.653zM12.017 23.117c-.444 0-.872-.191-1.277-.571-.808-.744-1.492-2.199-1.923-3.287-.466-1.21-.917-2.695-1.271-4.191-.315-1.281-.505-2.407-.53-2.854C6.911 10.189 7.366 8.657 8.37 7.658c.785-.792 1.92-1.237 3.372-1.321.294-.02.66-.021.935.001 1.28.053 2.519.396 3.336.649l-.444 1.434c-.47-.146-1.718-.533-2.981-.586-.135-.009-.26-.008-.386-.009-.116-.002-.245 0-.362.008-1.096.063-1.88.352-2.407.884-.692.688-1 1.837-.918 3.416.017.313.18 1.323.49 2.582.341 1.438.771 2.854 1.21 3.997.51 1.288 1.09 2.312 1.548 2.734.151.142.237.171.252.171l0 0 0 0c-.005 0 .114-.025.333-.273.309-.343.784-.856 1.224-1.33l.777-.843 1.108 1.012-.786.851c-.434.468-.903.974-1.204 1.309-.433.489-.9.751-1.387.773C12.059 23.117 12.038 23.117 12.017 23.117z"/><path d="M20.129,29.999c-0.621,0-1.14-0.185-1.576-0.559c-0.458-0.395-0.703-0.915-0.882-1.371c-0.104-0.264-0.17-0.773-0.194-0.981c-0.045-0.401-0.081-0.908-0.105-1.48c-0.027-0.742-0.042-1.482-0.042-2.227c0-0.605,0.01-1.208,0.025-1.728c-0.005-0.022-0.009-0.045-0.012-0.067c-0.007-0.051-0.019-0.1-0.035-0.146c-0.04-0.108-0.135-0.308-0.312-0.383c-0.062-0.027-0.118-0.058-0.179-0.094c-0.258,0.062-0.539-0.026-0.725-0.215c-0.186-0.189-0.268-0.477-0.199-0.732c0.103-0.385,0.228-0.769,0.352-1.079c0.049-0.137,0.121-0.303,0.2-0.483c0.381-0.872,0.903-2.066,0.337-4.738c-0.089-0.42-0.308-0.719-0.615-0.841c-0.287-0.114-0.666-0.115-1.127-0.008c-0.53,0.125-0.958,0.344-1.166,0.463c-0.243,0.14-0.545,0.133-0.781-0.021s-0.367-0.425-0.338-0.705c0.007-0.067,0.171-1.668,0.557-2.714c0.389-1.055,0.947-1.896,1.658-2.502c0.87-0.739,1.958-1.116,3.234-1.119c0.001,0,0.001,0.002,0.002,0.002h0.118c2.368,0.039,4.397,1.083,5.882,3.017c0.473,0.615,0.857,1.278,1.174,2.027c0.058,0.139,0.087,0.236,0.117,0.332c0.074,0.24,0.036,0.546-0.124,0.74s-0.385,0.342-0.642,0.314c-0.926-0.098-1.551,0.032-1.848,0.382c-0.275,0.322-0.319,0.876-0.131,1.648c0.202,0.824,0.61,1.676,0.9,2.244c0.149,0.292,0.294,0.559,0.416,0.783l0.029,0.055c0.003,0.004,0.005,0.009,0.008,0.013c0.101,0.177,0.197,0.357,0.311,0.597c0.167,0.395,0.352,0.706,0.574,0.984c0.004,0.005,0.009,0.011,0.013,0.016c0,0.001,0.001,0.001,0.001,0.002l0,0c0.095,0.12,0.187,0.244,0.289,0.393c0.136,0.199,0.169,0.452,0.087,0.679c-0.082,0.228-0.268,0.401-0.5,0.467c-0.045,0.014-0.099,0.031-0.157,0.059c-0.055,0.025-0.157,0.085-0.22,0.203c-0.078,0.146-0.112,0.382-0.099,0.681c-0.05,0.735-0.428,3.953-0.615,5.064c-0.152,0.898-0.411,1.501-0.839,1.954c-0.443,0.471-1.057,0.772-1.988,0.978C20.665,29.967,20.388,29.999,20.129,29.999z M18.819,21.319c0.024,0.092,0.037,0.188,0.037,0.287c-0.017,0.555-0.027,1.163-0.027,1.774c0,0.727,0.015,1.447,0.042,2.167c0.022,0.528,0.056,1,0.097,1.373c0.042,0.371,0.092,0.576,0.104,0.611c0.07,0.177,0.223,0.566,0.459,0.771c0.113,0.097,0.351,0.301,1.108,0.135c0.8-0.177,1.078-0.394,1.218-0.542c0.213-0.226,0.352-0.587,0.451-1.175c0.178-1.053,0.552-4.227,0.598-4.837c-0.027-0.493,0.062-0.97,0.273-1.365c0.101-0.189,0.234-0.361,0.392-0.508c-0.2-0.294-0.372-0.61-0.513-0.942c-0.077-0.166-0.146-0.298-0.215-0.422c-0.01-0.017-0.021-0.033-0.03-0.051h0.001c-0.001-0.003-0.003-0.006-0.005-0.009h-0.001c-0.02-0.037-0.036-0.076-0.049-0.116l-0.012,0.004c-0.126-0.234-0.276-0.511-0.433-0.815c-0.325-0.637-0.784-1.594-1.022-2.571c-0.309-1.269-0.158-2.27,0.448-2.978c0.441-0.518,1.085-0.822,1.922-0.91c-0.19-0.353-0.405-0.684-0.647-0.997c-1.214-1.582-2.796-2.4-4.705-2.432h-0.105c-0.924,0.001-1.665,0.249-2.265,0.76c-0.512,0.437-0.923,1.068-1.223,1.879c-0.114,0.31-0.207,0.695-0.279,1.064c0.086-0.025,0.171-0.047,0.256-0.067c0.762-0.18,1.444-0.155,2.024,0.073c0.778,0.309,1.336,1.01,1.53,1.924c0.665,3.144,0.005,4.652-0.431,5.65c-0.065,0.149-0.126,0.287-0.174,0.418c-0.025,0.062-0.05,0.128-0.074,0.195c0.002,0.001,0.004,0.002,0.006,0.003c0.521,0.226,0.925,0.67,1.14,1.258C18.764,21.057,18.797,21.187,18.819,21.319z M17.383,21.747c0,0.001,0,0.001,0,0.002C17.383,21.748,17.383,21.748,17.383,21.747z"/><path d="M16.617 20.96c-1.126 0-2.219-.52-2.997-1.424-.792-.921-1.143-2.125-.964-3.304.109-.761.152-1.559.127-2.365-.01-.631-.031-1.158-.031-1.161l1.499-.059c0 0 .021.544.032 1.185.027.882-.021 1.767-.143 2.619-.114.753.111 1.519.617 2.106.493.573 1.17.902 1.859.902V20.96zM24.677 20.994c-.199 0-.392-.079-.533-.222-.293-.296-.242-.579-.13-1.198.102-.564.273-1.51.298-2.369.01-.565-.052-1.123-.107-1.614-.049-.434-.091-.809-.08-1.141.03-.863.051-1.432-.068-2.408l1.489-.18c.132 1.092.109 1.74.078 2.639-.007.222.029.546.071.922.04.353.086.764.107 1.205.432-1.021.843-2.188 1.239-3.514.29-.986.449-1.876.458-2.569.009-.643-.121-.968-.167-1.031-1.195-1.32-2.919-2.001-5.117-2.014h-.172c-.311.005-.668.119-1.046.24-.295.095-.588.187-.876.241l-.278-1.475c.229-.043.462-.119.697-.195C20.983 6.17 21.487 6.009 22.031 6h.188c2.641.016 4.736.862 6.232 2.517.494.549.555 1.519.548 2.048-.011.829-.191 1.857-.52 2.977-.942 3.153-1.987 5.489-3.197 7.146-.129.178-.33.289-.549.306C24.715 20.993 24.696 20.994 24.677 20.994z"/><path d="M15.221,24.146c-0.971,0.001-1.614-0.221-1.956-0.67c-0.239-0.314-0.297-0.717-0.156-1.076c0.211-0.531,0.714-0.67,1.159-0.793c0.237-0.065,0.506-0.14,0.781-0.272c0.473-0.229,1.282-1.021,1.681-1.468l1.118,1c-0.12,0.134-1.146,1.267-2.012,1.748c0.038-0.003,0.076-0.007,0.115-0.012c1.094-0.116,1.417-0.797,1.449-0.874l1.396,0.547c-0.024,0.065-0.632,1.602-2.687,1.819C15.787,24.13,15.491,24.146,15.221,24.146z"/><g><path d="M17.497,16.077c-3.538-1.37-3.706-3.708-3.711-3.807l1.498-0.082l-0.749,0.041l0.748-0.058c0.006,0.062,0.181,1.51,2.756,2.507L17.497,16.077z"/></g><g><path d="M22.374,16.092l-0.458-1.428c1.447-0.464,2.172-1.701,2.142-2.685l1.499-0.047C25.605,13.477,24.528,15.401,22.374,16.092z"/></g></svg>