<svg xmlns="http://www.w3.org/2000/svg" enable-background="new 0 0 36 36" viewBox="0 0 36 36"><path fill="#EFEFEF" d="M8.114,5.564C6.309,12.241,1.61,15.891,0.74,19.109s-0.847,10.475,13.955,14.477s19.432-4.501,20.388-8.041C39.564,8.973,11.311-6.262,8.114,5.564z"/><rect width="1" height="2" x="2.937" y="21.552" fill="#A4AFC1" transform="rotate(-45.009 3.437 22.553)"/><rect width="1" height="2" x="7.002" y="25.618" fill="#A4AFC1" transform="rotate(-45.001 7.502 26.618)"/><rect width="2" height="1" x="2.26" y="26.118" fill="#A4AFC1" transform="rotate(-45.001 3.26 26.618)"/><path fill="#A4AFC1" d="M27.439,9.25c-0.827,0-1.5-0.673-1.5-1.5s0.673-1.5,1.5-1.5s1.5,0.673,1.5,1.5S28.266,9.25,27.439,9.25z M27.439,7.25c-0.276,0-0.5,0.225-0.5,0.5s0.224,0.5,0.5,0.5s0.5-0.225,0.5-0.5S27.715,7.25,27.439,7.25z"/><path fill="#F3F3F1" d="M28.867,15.02c-0.39-1.62-1.07-2.77-2.67-2.77h-1.2v2.5c0,0.02,0,0.04,0,0.06c0,2.58-1.69,4.19-4.4,4.19h-5.489c-0.78,0-2.08,0.25-2.11,1.94v2.56v2.67c0,1.49,0.92,2.61,2.4,2.86c1.84,0.3,3.839,0.29,5.489-0.01c1.16-0.2,1.85-0.52,2.24-0.98c0.39-0.46,0.5-1.08,0.5-1.87V23h2.06c1.59,0,2.74-0.58,3.18-2.4C29.367,18.51,29.387,17.21,28.867,15.02z"/><path fill="#F3F3F1" d="M19.999,25c0.552,0,1,0.448,1,0.998c-0.005,0.556-0.448,1.002-1,1.002c-0.548,0-1-0.452-1-1.002C18.999,25.448,19.447,25,19.999,25z"/><path fill="#2FDF84" d="M20.601,6.97c-1.84-0.3-3.839-0.29-5.489,0.01c-1.16,0.2-1.85,0.52-2.24,0.98c-0.39,0.46-0.5,1.08-0.5,1.87V13h-2.06c-1.59,0-2.74,0.58-3.18,2.4c-0.5,2.09-0.52,3.39,0,5.58c0.39,1.62,1.07,2.77,2.67,2.77h1.2v-2.5c0-0.02,0-0.04,0-0.06c0-2.58,1.69-4.19,4.4-4.19h5.489c0.78,0,2.08-0.25,2.11-1.94V12.5V9.83C23.001,8.34,22.081,7.22,20.601,6.97z"/><path fill="#2FDF84" d="M16.001,11c-0.552,0-1-0.448-1-0.998C15.007,9.447,15.45,9,16.001,9c0.548,0,1,0.452,1,1.002C17.001,10.552,16.553,11,16.001,11z"/><path fill="#D5DBE1" d="M19.999,25c0.552,0,1,0.448,1,0.998c-0.005,0.556-0.448,1.002-1,1.002c-0.548,0-1-0.452-1-1.002C18.999,25.448,19.447,25,19.999,25z"/><path fill="#00B871" d="M16.001,11c-0.552,0-1-0.448-1-0.998C15.007,9.447,15.45,9,16.001,9c0.548,0,1,0.452,1,1.002C17.001,10.552,16.553,11,16.001,11z"/><path fill="#D5DBE1" d="M27.248 14.81c0-.02 0-.04 0-.06v-2.287c-.298-.137-.644-.213-1.05-.213h-1.2v2.5c0 .02 0 .04 0 .06 0 2.58-1.69 4.19-4.4 4.19h2.25C25.558 19 27.248 17.39 27.248 14.81zM17.649 29.03c-1.48-.25-2.4-1.37-2.4-2.86V23.5v-2.56c.03-1.69 1.33-1.94 2.11-1.94h-2.25c-.78 0-2.08.25-2.11 1.94v2.56 2.67c0 1.49.92 2.61 2.4 2.86 1.268.207 2.605.256 3.858.175C18.716 29.169 18.176 29.116 17.649 29.03zM22.249 25c.552 0 1 .448 1 .998C23.243 26.554 22.8 27 22.249 27c-.548 0-1-.452-1-1.002C21.249 25.448 21.697 25 22.249 25z"/><path fill="#00B871" d="M9.383,20.98c-0.52-2.19-0.5-3.49,0-5.58c0.44-1.82,1.59-2.4,3.18-2.4h2.06V9.83c0-0.79,0.11-1.41,0.5-1.87c0.39-0.46,1.08-0.78,2.24-0.98c0.513-0.093,1.066-0.148,1.632-0.185c-1.349-0.089-2.704-0.029-3.882,0.185c-1.16,0.2-1.85,0.52-2.24,0.98c-0.39,0.46-0.5,1.08-0.5,1.87V13h-2.06c-1.59,0-2.74,0.58-3.18,2.4c-0.5,2.09-0.52,3.39,0,5.58c0.39,1.62,1.07,2.77,2.67,2.77h1.2v-0.213C10.127,23.134,9.673,22.189,9.383,20.98z"/><path d="M13.75,23.5h-1.5v-2.56c0.03-1.689,1.099-2.69,2.859-2.69h5.49c2.285,0,3.649-1.286,3.649-3.44v-2.56h1.5v2.5c0,3.061-2.021,5-5.149,5h-5.49c-1.179,0-1.349,0.608-1.359,1.204V23.5z"/><path d="M18.169,30c-0.966,0-1.952-0.076-2.891-0.229c-1.842-0.312-3.029-1.725-3.029-3.601V20.94h1.5v5.229c0,1.141,0.663,1.933,1.774,2.121c1.737,0.282,3.645,0.279,5.229-0.01c0.937-0.16,1.524-0.397,1.802-0.726c0.226-0.267,0.322-0.681,0.322-1.386v-2.42h-4.129v-1.5h4.879c0.414,0,0.75,0.336,0.75,0.75v3.17c0,0.725-0.077,1.646-0.678,2.355c-0.522,0.616-1.375,1.009-2.685,1.233C20.134,29.919,19.162,30,18.169,30z"/><path d="M25.688 23.75h-2.06v-1.5h2.06c1.446 0 2.133-.512 2.451-1.826.483-2.019.483-3.192-.001-5.231C27.7 13.373 27.045 13 26.198 13h-.45v1.75l-1.5.06v-2.56c0-.414.336-.75.75-.75h1.2c2.325 0 3.053 1.908 3.399 3.344.535 2.256.535 3.696 0 5.931C29.12 22.749 27.805 23.75 25.688 23.75zM19.999 27.75c-.965 0-1.75-.786-1.75-1.752 0-.964.785-1.748 1.75-1.748s1.75.784 1.75 1.748C21.739 26.968 20.954 27.75 19.999 27.75zM19.999 25.75c-.138 0-.25.111-.25.248 0 .273.497.276.5-.007C20.249 25.861 20.136 25.75 19.999 25.75zM11.752 23.75h-1.5v-2.5c0-3.061 2.021-5 5.149-5h5.49c1.179 0 1.349-.608 1.359-1.203V12.5h1.5v2.561c-.03 1.689-1.099 2.689-2.859 2.689h-5.49c-2.285 0-3.649 1.286-3.649 3.44V23.75z"/><g><path d="M23.75,15.061h-1.5V9.83c0-1.141-0.663-1.933-1.774-2.121c-1.737-0.283-3.645-0.28-5.229,0.01c-0.937,0.16-1.524,0.397-1.802,0.726c-0.226,0.267-0.322,0.681-0.322,1.386v2.42h4.129v1.5h-4.879c-0.414,0-0.75-0.336-0.75-0.75V9.83c0-0.725,0.077-1.646,0.678-2.355c0.522-0.616,1.375-1.009,2.685-1.233c1.74-0.316,3.833-0.323,5.737-0.012c1.842,0.312,3.029,1.725,3.029,3.601V15.061z"/><path d="M11.002 24.5h-1.2c-2.325 0-3.053-1.908-3.399-3.344-.535-2.256-.535-3.696 0-5.931.478-1.975 1.792-2.976 3.909-2.976h2.06v1.5h-2.06c-1.446 0-2.133.512-2.451 1.826-.483 2.019-.483 3.192.001 5.231C8.3 22.627 8.955 23 9.802 23h.45v-1.75l1.5-.06v2.56C11.752 24.164 11.416 24.5 11.002 24.5zM16.001 11.75c-.965 0-1.75-.784-1.75-1.748.009-.97.794-1.752 1.75-1.752.965 0 1.75.786 1.75 1.752C17.751 10.966 16.966 11.75 16.001 11.75zM16.001 9.75c-.139 0-.249.114-.25.259 0 .26.5.267.5-.007C16.251 9.868 16.135 9.75 16.001 9.75z"/></g></svg>