<svg xmlns="http://www.w3.org/2000/svg" enable-background="new 0 0 36 36" viewBox="0 0 36 36"><path fill="#EFEFEF" d="M27.417,3.914c-6.915,0.129-11.732-3.365-15.064-3.302S2.057,2.721,2.344,18.052s9.744,17.404,13.41,17.336C32.917,35.067,39.665,3.685,27.417,3.914z"/><rect width="2" height="1" x="10.581" y="3.881" fill="#A4AFC1" transform="rotate(-45.001 11.58 4.381)"/><rect width="2" height="1" x="6.515" y="7.946" fill="#A4AFC1" transform="rotate(-45.001 7.515 8.446)"/><rect width="1" height="2" x="7.015" y="3.203" fill="#A4AFC1" transform="rotate(-44.98 7.514 4.203)"/><path fill="#A4AFC1" d="M30.25,11.994c-0.827,0-1.5-0.673-1.5-1.5s0.673-1.5,1.5-1.5s1.5,0.673,1.5,1.5S31.077,11.994,30.25,11.994z M30.25,9.994c-0.276,0-0.5,0.225-0.5,0.5s0.224,0.5,0.5,0.5s0.5-0.225,0.5-0.5S30.526,9.994,30.25,9.994z"/><path fill="#F3F3F1" d="M20.017,13.681c-0.655-0.046-1.327-0.074-2.017-0.074s-1.362,0.028-2.017,0.074c-0.429,0.626-0.847,1.289-1.247,1.987c-0.657,1.144-1.209,2.286-1.663,3.393c0.216,0.422,0.441,0.846,0.685,1.27c0.381,0.663,0.778,1.294,1.184,1.893c0.974,0.107,1.997,0.169,3.058,0.169s2.085-0.061,3.058-0.169c0.406-0.598,0.803-1.229,1.184-1.893c0.244-0.424,0.469-0.848,0.685-1.27c-0.454-1.106-1.006-2.249-1.663-3.393C20.864,14.971,20.445,14.307,20.017,13.681z"/><path fill="#2FDF84" d="M20.017,13.681c-0.655-0.046-1.327-0.074-2.017-0.074s-1.362,0.028-2.017,0.074c-0.429,0.626-0.847,1.289-1.247,1.987c-0.657,1.144-1.209,2.286-1.663,3.393c0.216,0.422,0.441,0.846,0.685,1.27c0.381,0.663,0.778,1.294,1.184,1.893c0.974,0.107,1.997,0.169,3.058,0.169s2.085-0.061,3.058-0.169c0.406-0.598,0.803-1.229,1.184-1.893c0.244-0.424,0.469-0.848,0.685-1.27c-0.454-1.106-1.006-2.249-1.663-3.393C20.864,14.971,20.445,14.307,20.017,13.681z"/><path fill="#F3F3F1" d="M11.24 14.495C8.518 15.297 6.75 16.566 6.75 18c0 1.588 2.166 2.975 5.4 3.747.231-.854.542-1.756.923-2.686C12.262 17.478 11.645 15.923 11.24 14.495zM29.25 18c0-1.434-1.768-2.703-4.49-3.505-.406 1.428-1.023 2.983-1.833 4.567.381.929.692 1.832.923 2.686C27.084 20.975 29.25 19.588 29.25 18zM24.76 14.495c.892-3.138.77-5.657-.545-6.474-1.409-.875-3.822.43-6.216 3.085.682.756 1.362 1.619 2.017 2.575C21.776 13.806 23.388 14.091 24.76 14.495zM14.942 22.224c-.994-.11-1.93-.271-2.792-.477-.817 3.025-.669 5.436.612 6.232 1.217.756 3.182-.121 5.238-2.081C16.975 24.921 15.93 23.679 14.942 22.224z"/><path fill="#F3F3F1" d="M18 25.898c2.055 1.96 4.021 2.837 5.238 2.081 1.281-.796 1.43-3.207.612-6.232-.862.206-1.797.368-2.792.477C20.07 23.679 19.025 24.921 18 25.898zM18 11.106c-2.394-2.655-4.807-3.961-6.216-3.085-1.315.817-1.436 3.336-.545 6.474 1.372-.404 2.984-.689 4.744-.813C16.638 12.725 17.318 11.863 18 11.106z"/><path fill="#00B871" d="M17.192,22.224c-0.406-0.598-0.803-1.229-1.184-1.893c-0.244-0.424-0.469-0.848-0.685-1.27c0.454-1.106,1.006-2.249,1.663-3.393c0.4-0.698,0.818-1.361,1.247-1.987c0.29-0.021,0.595-0.02,0.892-0.033c-0.374-0.016-0.74-0.041-1.125-0.041c-0.69,0-1.362,0.028-2.017,0.074c-0.429,0.626-0.847,1.289-1.247,1.987c-0.657,1.144-1.209,2.286-1.663,3.393c0.216,0.422,0.441,0.846,0.685,1.27c0.381,0.663,0.778,1.294,1.184,1.893c0.974,0.107,1.997,0.169,3.058,0.169c0.382,0,0.753-0.017,1.125-0.032C18.464,22.334,17.815,22.293,17.192,22.224z"/><path fill="#D5DBE1" d="M9 18c0-1.038.936-1.988 2.481-2.738-.084-.258-.17-.516-.241-.767C8.518 15.297 6.75 16.566 6.75 18c0 1.588 2.166 2.975 5.4 3.747.056-.206.13-.422.195-.633C10.286 20.319 9 19.22 9 18zM25.177 19.061c.668-1.306 1.197-2.588 1.592-3.8-.589-.286-1.258-.546-2.009-.767-.406 1.428-1.023 2.983-1.833 4.567.381.929.692 1.832.923 2.686.749-.179 1.434-.394 2.055-.633C25.701 20.448 25.466 19.767 25.177 19.061zM22.267 13.681c-.655-.956-1.335-1.819-2.017-2.575 1.388-1.539 2.776-2.605 3.977-3.075-.004-.003-.007-.007-.011-.01-1.409-.875-3.822.43-6.216 3.085.682.756 1.362 1.619 2.017 2.575 1.759.125 3.371.409 4.744.813.048-.168.081-.327.123-.492C24.059 13.857 23.185 13.746 22.267 13.681zM14.308 22.135c-.756-.103-1.485-.228-2.158-.388-.817 3.025-.669 5.436.612 6.232.595.37 1.37.344 2.246-.003C13.788 27.213 13.609 24.971 14.308 22.135zM20.25 25.898c1.025-.977 2.07-2.219 3.058-3.674.218-.024.421-.06.634-.089-.032-.131-.056-.255-.092-.388-.862.206-1.797.368-2.792.477-.988 1.455-2.034 2.697-3.058 3.674 2.055 1.96 4.021 2.837 5.238 2.081.001-.001.002-.002.004-.003C22.326 27.613 21.3 26.9 20.25 25.898zM14.023 8.031c-.871-.341-1.646-.378-2.239-.01-1.315.817-1.436 3.336-.545 6.474.656-.193 1.371-.357 2.127-.492C12.629 11.109 12.79 8.812 14.023 8.031z"/><path d="M18,23.143c-5.817,0-12-1.803-12-5.143s6.183-5.143,12-5.143S30,14.66,30,18S23.817,23.143,18,23.143z M18,14.357c-6.01,0-10.5,1.923-10.5,3.643s4.49,3.643,10.5,3.643S28.5,19.72,28.5,18S24.01,14.357,18,14.357z"/><path d="M13.774,28.998c-0.521,0-0.998-0.128-1.407-0.383l0,0c-2.838-1.762-1.232-8.178,1.719-13.319c2.488-4.336,5.716-7.546,8.223-8.178c0.874-0.221,1.67-0.129,2.303,0.267c2.838,1.762,1.232,8.178-1.719,13.319c-2.487,4.336-5.715,7.545-8.223,8.178C14.36,28.96,14.06,28.998,13.774,28.998z M23.206,8.5c-0.162,0-0.339,0.024-0.531,0.073c-1.747,0.44-4.679,2.92-7.289,7.469c-3.071,5.352-3.709,10.38-2.229,11.3h0c0.284,0.177,0.668,0.206,1.145,0.085c1.748-0.44,4.679-2.921,7.289-7.469c3.072-5.352,3.71-10.38,2.229-11.3C23.65,8.553,23.445,8.5,23.206,8.5z"/><path d="M22.226,28.998c-0.286,0-0.586-0.038-0.896-0.116c-2.508-0.633-5.736-3.842-8.223-8.178C10.156,15.562,8.55,9.146,11.389,7.385c0.633-0.396,1.428-0.487,2.303-0.267c2.507,0.632,5.735,3.842,8.223,8.178c2.951,5.142,4.557,11.558,1.719,13.319C23.224,28.87,22.748,28.998,22.226,28.998z M12.794,8.5c-0.239,0-0.444,0.053-0.614,0.158c-1.482,0.92-0.844,5.948,2.228,11.3c2.61,4.548,5.542,7.028,7.289,7.469c0.477,0.121,0.86,0.092,1.145-0.085h0c1.481-0.92,0.843-5.948-2.229-11.3c-2.61-4.549-5.542-7.028-7.289-7.469C13.133,8.524,12.956,8.5,12.794,8.5z"/><path d="M18,20.5c-1.378,0-2.5-1.121-2.5-2.5s1.122-2.5,2.5-2.5s2.5,1.121,2.5,2.5S19.378,20.5,18,20.5z M18,17c-0.551,0-1,0.448-1,1s0.449,1,1,1s1-0.448,1-1S18.551,17,18,17z"/></svg>